<?xml version="1.0" standalone="no"?>
<!DOCTYPE svg PUBLIC "-//W3C//DTD SVG 20010904//EN"
 "http://www.w3.org/TR/2001/REC-SVG-20010904/DTD/svg10.dtd">
<svg version="1.0" xmlns="http://www.w3.org/2000/svg"
 width="900.000000pt" height="900.000000pt" viewBox="0 0 900.000000 900.000000"
 preserveAspectRatio="xMidYMid meet">

<g transform="translate(0.000000,900.000000) scale(0.100000,-0.100000)"
fill="#000000" stroke="none">
<path d="M4048 7413 c3 -173 1 -233 -17 -358 -72 -513 -312 -1067 -734 -1695
-147 -220 -445 -611 -447 -589 -1 2 -3 36 -6 74 -30 422 -72 598 -210 895
l-21 45 -7 -40 c-55 -322 -118 -511 -286 -860 -43 -88 -114 -235 -158 -327
-85 -174 -141 -304 -185 -423 -169 -459 -193 -940 -66 -1326 130 -398 451
-778 949 -1125 114 -79 443 -284 448 -279 2 2 -14 46 -36 97 -223 521 -227
959 -11 1390 53 107 109 202 189 323 127 192 209 347 293 560 58 145 120 338
132 412 4 24 10 45 14 48 14 8 94 -145 127 -243 53 -155 66 -239 67 -407 0
-82 -3 -170 -7 -195 l-7 -45 32 35 c78 87 218 328 279 480 71 177 127 380 161
585 23 139 32 455 16 564 l-8 53 33 -23 c18 -12 80 -62 138 -110 427 -355 754
-871 923 -1459 47 -163 75 -297 103 -495 24 -168 24 -575 0 -735 -45 -304
-111 -542 -207 -749 -22 -46 -38 -85 -36 -87 5 -5 157 88 288 176 985 660
1450 1475 1380 2420 -50 675 -386 1431 -926 2080 -84 101 -333 360 -346 360
-4 0 2 -24 13 -52 28 -74 55 -205 68 -327 19 -193 -19 -414 -96 -562 -42 -80
-130 -182 -137 -159 -3 8 -22 71 -42 140 -132 455 -324 868 -560 1205 -276
394 -611 697 -972 879 -144 72 -130 90 -125 -151z"/>
</g>
</svg>
