<?xml version="1.0" standalone="no"?>
<!DOCTYPE svg PUBLIC "-//W3C//DTD SVG 20010904//EN"
 "http://www.w3.org/TR/2001/REC-SVG-20010904/DTD/svg10.dtd">
<svg version="1.0" xmlns="http://www.w3.org/2000/svg"
 width="920.000000pt" height="790.000000pt" viewBox="0 0 920.000000 790.000000"
 preserveAspectRatio="xMidYMid meet">

<g transform="translate(0.000000,790.000000) scale(0.100000,-0.100000)"
fill="#000000" stroke="none">
<path d="M4473 6796 l-123 -81 0 -382 c0 -211 -3 -383 -6 -383 -6 0 -235 128
-343 192 -36 21 -70 38 -76 38 -6 0 -60 -27 -118 -61 l-107 -61 0 -134 0 -134
43 -21 c23 -12 67 -36 97 -54 66 -39 146 -85 340 -195 80 -45 149 -86 154 -90
9 -9 11 -498 3 -507 -3 -2 -109 52 -236 120 l-231 125 0 -259 c0 -143 -3 -259
-7 -259 -9 0 -30 12 -287 160 l-166 95 0 372 0 372 -27 18 c-36 24 -209 123
-216 123 -3 0 -48 -30 -101 -66 l-96 -65 0 -250 c0 -137 -2 -249 -5 -249 -3 0
-49 26 -103 57 -53 31 -128 74 -167 96 -38 22 -99 56 -135 77 -36 20 -111 64
-168 98 l-103 61 -129 -67 -130 -67 0 -155 0 -156 127 -68 c71 -37 224 -120
340 -184 237 -131 228 -117 123 -173 -30 -16 -118 -64 -195 -108 l-140 -79 -3
-140 -3 -141 114 -55 c63 -31 118 -56 124 -56 11 0 86 43 432 247 l204 120 86
-50 c47 -28 140 -81 206 -119 66 -39 125 -75 132 -81 9 -9 -38 -43 -198 -142
-115 -71 -208 -134 -206 -139 2 -7 70 -47 385 -228 28 -16 52 -33 52 -37 0 -8
-410 -245 -432 -249 -9 -2 -34 8 -55 21 -21 13 -105 64 -188 112 -82 49 -205
122 -273 162 l-124 74 -49 -31 c-27 -16 -51 -30 -53 -30 -2 0 -36 -18 -75 -41
l-71 -41 0 -137 0 -138 216 -109 c118 -60 217 -111 220 -115 2 -4 -31 -25 -74
-48 -42 -23 -198 -108 -347 -189 l-270 -148 -3 -155 -2 -156 134 -56 c74 -31
140 -57 148 -57 7 0 36 13 63 29 28 15 145 81 260 146 281 158 347 195 351
195 2 0 4 -110 4 -244 l0 -245 101 -66 100 -67 52 33 c29 18 82 50 120 72 l67
40 0 367 0 368 113 65 c61 35 156 90 210 121 53 31 104 59 112 62 13 5 15 -28
15 -261 l0 -267 23 16 c12 8 45 29 72 46 28 17 119 75 203 130 84 55 156 100
160 100 4 0 6 -114 6 -252 l-2 -253 -83 -49 c-158 -92 -194 -113 -376 -216
l-183 -103 0 -133 c0 -128 1 -134 23 -147 83 -50 188 -107 199 -107 6 0 103
52 215 115 112 63 207 115 211 115 5 0 8 -172 8 -382 l0 -383 122 -82 122 -83
102 69 c57 37 113 73 126 80 l22 12 0 384 c0 212 2 385 5 385 3 0 96 -52 208
-115 112 -63 210 -115 218 -115 8 1 59 24 114 53 l100 52 1 137 c1 75 -1 140
-5 145 -3 5 -31 23 -61 40 -30 16 -88 49 -127 72 -178 101 -213 121 -291 165
-46 26 -99 57 -118 69 l-35 22 -2 253 c-2 246 1 269 29 243 5 -5 102 -66 216
-135 l208 -125 2 254 3 254 45 -28 c25 -15 113 -67 195 -114 83 -47 169 -97
193 -111 l42 -25 0 -365 0 -365 43 -25 c23 -14 73 -41 110 -61 l68 -36 72 39
c40 21 90 50 112 64 l40 25 -1 237 c0 160 3 236 10 236 6 0 31 -12 56 -27 25
-14 74 -43 110 -63 36 -20 153 -87 260 -148 107 -62 200 -112 207 -112 12 0
213 87 253 109 12 7 16 37 18 158 l3 151 -73 44 c-40 25 -140 85 -223 133
-184 109 -349 207 -353 210 -2 2 54 35 125 75 70 40 163 92 206 117 l77 45 0
128 0 129 -104 74 -104 75 -39 -22 c-49 -28 -180 -102 -358 -201 -77 -43 -165
-93 -196 -111 l-57 -34 -231 123 c-127 67 -231 124 -231 127 0 3 76 48 168
100 92 52 191 109 220 126 l53 32 -103 63 c-57 35 -154 96 -216 136 l-114 72
69 44 c37 24 139 89 225 145 l158 101 326 -194 325 -194 110 62 109 61 0 136
0 135 -38 21 c-20 11 -75 42 -122 69 -47 26 -121 68 -165 92 -44 24 -83 47
-88 52 -8 8 17 24 438 264 l220 125 0 148 0 148 -110 68 c-60 37 -116 67 -124
67 -7 1 -58 -24 -113 -55 -153 -86 -562 -305 -573 -307 -6 -1 -10 88 -10 251
l0 253 -80 35 c-44 20 -98 42 -120 51 l-40 15 -107 -52 -108 -52 0 -397 0
-398 -102 -55 c-57 -31 -161 -88 -233 -127 l-130 -71 -5 274 -5 273 -65 -40
c-232 -142 -373 -227 -376 -224 -8 7 -5 500 3 507 9 8 208 123 373 215 58 32
121 68 140 80 20 13 60 35 88 49 l53 27 -3 122 -3 122 -85 57 c-142 96 -131
93 -191 57 -28 -16 -77 -43 -108 -60 -31 -16 -69 -37 -86 -47 -71 -41 -183
-102 -189 -102 -3 0 -6 172 -6 383 l0 383 -107 69 c-60 37 -117 74 -128 80
-18 11 -35 3 -142 -69z m401 -2576 c25 -44 67 -117 92 -162 26 -46 53 -92 60
-104 11 -18 2 -39 -86 -190 l-97 -169 -220 -3 -219 -2 -115 172 -116 172 110
183 110 183 218 0 217 0 46 -80z"/>
</g>
</svg>
